<?xml version="1.0" encoding="UTF-8" standalone="no"?>
<svg
   class="svg-icon"
   style="overflow:hidden;fill:currentColor"
   viewBox="0 0 899.99999 900.00001"
   version="1.1"
   id="svg12"
   sodipodi:docname="cpu.svg"
   width="900"
   height="900"
   inkscape:version="1.3.2 (091e20ef0f, 2023-11-25, custom)"
   xmlns:inkscape="http://www.inkscape.org/namespaces/inkscape"
   xmlns:sodipodi="http://sodipodi.sourceforge.net/DTD/sodipodi-0.dtd"
   xmlns="http://www.w3.org/2000/svg"
   xmlns:svg="http://www.w3.org/2000/svg">
  <defs
     id="defs12" />
  <sodipodi:namedview
     id="namedview12"
     pagecolor="#ffffff"
     bordercolor="#000000"
     borderopacity="0.25"
     inkscape:showpageshadow="2"
     inkscape:pageopacity="0.0"
     inkscape:pagecheckerboard="0"
     inkscape:deskcolor="#d1d1d1"
     inkscape:zoom="0.79070325"
     inkscape:cx="399.01189"
     inkscape:cy="545.71674"
     inkscape:window-width="2556"
     inkscape:window-height="1569"
     inkscape:window-x="0"
     inkscape:window-y="27"
     inkscape:window-maximized="1"
     inkscape:current-layer="svg12">
    <inkscape:page
       x="0"
       y="0"
       width="900"
       height="900"
       id="page12"
       margin="108.52792 0 0"
       bleed="0" />
  </sodipodi:namedview>
  <g
     id="g1"
     transform="translate(54.948577,57.934594)">
    <path
       d="M 94.779927,91.806903 H 695.32093 V 692.3349 H 94.779927 Z"
       fill="#384244"
       id="path1"
       style="fill:#cccccc" />
    <path
       d="m 173.91493,170.9289 h 442.273 v 442.281 h -442.273 z"
       fill="#ffffff"
       id="path2" />
    <path
       d="m 208.59193,5.7649029 h 22.587 V 91.806903 h -22.587 z m 50.043,0 h 22.596 V 91.806903 h -22.596 z m 50.056,0 h 22.588 V 91.806903 h -22.588 z m 50.043,0 h 22.588 V 91.806903 h -22.588 z m 50.046,0 h 22.596 V 91.806903 h -22.596 z m 50.047,0 h 22.591 V 91.806903 h -22.591 z m 50.043,0 h 22.599 V 91.806903 h -22.599 z m 50.052,0 h 22.59 V 91.806903 h -22.59 z"
       fill="#696f6f"
       id="path3"
       style="fill:#cccccc" />
    <path
       d="m 208.59193,692.3349 h 22.587 v 86.031 h -22.587 z m 50.043,0 h 22.596 v 86.031 h -22.596 z m 50.056,0 h 22.588 v 86.031 h -22.588 z m 50.043,0 h 22.588 v 86.031 h -22.588 z m 50.046,0 h 22.596 v 86.031 h -22.596 z m 50.047,0 h 22.591 v 86.031 h -22.591 z m 50.043,0 h 22.599 v 86.031 h -22.599 z m 50.052,0 h 22.59 v 86.031 h -22.59 z"
       fill="#696f6f"
       id="path4"
       style="fill:#cccccc" />
    <path
       d="m 695.32093,205.6069 h 86.032 v 22.588 h -86.032 z m 0,50.046 h 86.032 v 22.588 h -86.032 z m 0,50.046 h 86.032 v 22.595 h -86.032 z m 0,50.054 h 86.032 v 22.585 h -86.032 z m 0,50.041 h 86.032 v 22.59 h -86.032 z m 0,50.048 h 86.032 v 22.592 h -86.032 z m 0,50.047 h 86.032 v 22.594 h -86.032 z m 0,50.049 h 86.032 v 22.588 h -86.032 z"
       fill="#696f6f"
       id="path5"
       style="fill:#cccccc" />
    <path
       d="M 8.7499265,205.6069 H 94.779927 v 22.588 H 8.7499265 Z m 0,50.046 H 94.779927 v 22.588 H 8.7499265 Z m 0,50.046 H 94.779927 v 22.595 H 8.7499265 Z m 0,50.054 H 94.779927 v 22.585 H 8.7499265 Z m 0,50.041 H 94.779927 v 22.59 H 8.7499265 Z m 0,50.048 H 94.779927 v 22.592 H 8.7499265 Z m 0,50.047 H 94.779927 v 22.594 H 8.7499265 Z m 0,50.049 H 94.779927 v 22.588 H 8.7499265 Z"
       fill="#696f6f"
       id="path6"
       style="fill:#cccccc" />
    <path
       d="m 227.41393,329.9699 h 84.456 v 26.499 h -84.456 z m 0,97.704 h 84.456 v 26.496 h -84.456 z"
       fill="#21a4d4"
       id="path7" />
    <path
       d="m 225.44293,329.9699 h 26.496 v 124.2 h -26.496 z"
       fill="#21a4d4"
       id="path8" />
    <path
       d="m 466.95793,329.4159 h 26.496 v 125.301 h -26.496 z m 71.206,0 h 26.496 v 125.301 h -26.496 z"
       fill="#21a4d4"
       id="path9" />
    <path
       d="m 466.95793,428.2209 h 97.702 v 26.496 h -97.702 z"
       fill="#21a4d4"
       id="path10" />
    <path
       d="m 340.64293,329.9699 h 84.452 v 26.499 h -84.452 z m 0,55.473 h 97.702 v 26.493 h -97.702 z"
       fill="#21a4d4"
       id="path11" />
    <path
       d="m 338.67393,329.9699 h 26.494 v 124.2 h -26.494 z m 80.628,0 h 26.494 v 81.966 h -26.494 z"
       fill="#21a4d4"
       id="path12" />
  </g>
</svg>
