<?xml version="1.0" encoding="UTF-8" standalone="no"?>
<svg
   class="svg-icon"
   style="overflow:hidden;fill:currentColor"
   viewBox="0 0 1024 700"
   version="1.1"
   id="svg39"
   sodipodi:docname="gpu.svg"
   inkscape:version="1.3.2 (091e20ef0f, 2023-11-25, custom)"
   width="1024"
   height="700"
   xmlns:inkscape="http://www.inkscape.org/namespaces/inkscape"
   xmlns:sodipodi="http://sodipodi.sourceforge.net/DTD/sodipodi-0.dtd"
   xmlns="http://www.w3.org/2000/svg"
   xmlns:svg="http://www.w3.org/2000/svg">
  <defs
     id="defs39" />
  <sodipodi:namedview
     id="namedview39"
     pagecolor="#ffffff"
     bordercolor="#000000"
     borderopacity="0.25"
     inkscape:showpageshadow="2"
     inkscape:pageopacity="0.0"
     inkscape:pagecheckerboard="0"
     inkscape:deskcolor="#d1d1d1"
     inkscape:zoom="1.5771484"
     inkscape:cx="512"
     inkscape:cy="160.09907"
     inkscape:window-width="2556"
     inkscape:window-height="1569"
     inkscape:window-x="0"
     inkscape:window-y="1467"
     inkscape:window-maximized="1"
     inkscape:current-layer="g1">
    <inkscape:page
       x="0"
       y="0"
       width="1024"
       height="700"
       id="page39"
       margin="257.12912 0 188.01808"
       bleed="0" />
  </sodipodi:namedview>
  <g
     id="g1"
     transform="translate(0.7663805,46.403026)">
    <path
       d="m 962.09764,63.596978 h -726.192 c -21.61698,10e-4 -42.31329,8.75089 -57.376,24.256 l -54.16,55.743992 h 107.184 c -38.096,42.48 -61.472,98.448 -61.472,160 0,61.552 23.376,117.52 61.472,160 h -107.184 l 54.144,55.744 c 15.06973,15.50448 35.77058,24.25343 57.392,24.256 h 398.176 328 c 22.09139,0 39.99996,-17.90861 39.99996,-40 V 103.59698 c 0.01,-22.088802 -17.89516,-40.000002 -39.98396,-40.000002 z"
       fill="#ff5252"
       id="path1"
       sodipodi:nodetypes="sccccsccccccscs"
       style="fill:#808080;fill-opacity:1" />
    <path
       d="m 956.09764,551.59697 h -720.192 c -23.76842,-0.0518 -46.51651,-9.66422 -63.12,-26.672 l -54.16,-55.744 c -3.07954,-3.17233 -3.00432,-8.24046 0.168,-11.32 3.17233,-3.07954 8.24046,-3.00433 11.32,0.168 l 54.144,55.744 c 13.58492,13.9179 32.19918,21.7834 51.648,21.824 h 720.192 c 4.41828,0 8,3.58172 8,8 0,4.41828 -3.58172,8 -8,8 z m 6,0 h -8 c -4.41828,0 -8,-3.58172 -8,-8 0,-4.41828 3.58172,-8 8,-8 h 8 c 17.648,0 32,-14.352 32,-32 V 103.59698 c 0,-17.648002 -14.352,-32.000002 -32,-32.000002 h -726.192 c -19.44735,0.0478 -38.05893,7.91218 -51.648,21.824 l -54.144,55.759992 c -3.07954,3.17233 -8.14767,3.24754 -11.32,0.168 -3.17232,-3.07954 -3.24754,-8.14766 -0.168,-11.31999 l 54.144,-55.744002 c 16.60349,-17.00778 39.35158,-26.62021 63.12,-26.672 h 726.192 c 26.464,0 47.99996,21.536 47.99996,48.000002 v 399.99999 c -0.026,26.48986 -21.4941,47.95754 -47.98396,47.984 z"
       fill="#263238"
       id="path2"
       sodipodi:nodetypes="scccscccssscssssssscccscccsscc" />
    <path
       d="M 1002.0976,159.59697 H 874.09764 a 8,8 0 0 1 0,-16 h 127.99996 a 8,8 0 0 1 0,16 z"
       fill="#263238"
       id="path3" />
    <path
       d="m 842.09764,191.59697 c -22.048,0 -40,-17.936 -40,-40 0,-22.06399 17.952,-39.99999 40,-39.99999 22.048,0 40,17.936 40,39.99999 0,22.064 -17.952,40 -40,40 z m 0,-63.99999 c -13.232,0 -24,10.768 -24,23.99999 0,13.232 10.768,24 24,24 13.232,0 24,-10.768 24,-24 0,-13.23199 -10.768,-23.99999 -24,-23.99999 z m 159.99996,215.99999 h -95.99996 a 8,8 0 0 1 0,-16 h 95.99996 a 8,8 0 0 1 0,16 z"
       fill="#263238"
       id="path4" />
    <path
       d="m 874.09764,375.59697 c -22.048,0 -40,-17.936 -40,-40 0,-22.064 17.952,-40 40,-40 22.048,0 40,17.936 40,40 0,22.064 -17.952,40 -40,40 z m 0,-64 c -13.232,0 -24,10.768 -24,24 0,13.232 10.768,24 24,24 13.232,0 24,-10.768 24,-24 0,-13.232 -10.768,-24 -24,-24 z m -102.704,-3.472 a 8,8 0 0 1 -4.88,-14.336 l 78.704,-60.528 a 8,8 0 0 1 4.88,-1.664 h 151.99996 a 8,8 0 0 1 0,16 H 852.81764 l -76.544,58.88 a 8.048,8.048 0 0 1 -4.88,1.648 z"
       fill="#263238"
       id="path5" />
    <path
       d="m 746.09764,359.59697 c -22.048,0 -40,-17.936 -40,-40 0,-22.064 17.952,-40 40,-40 22.048,0 40,17.936 40,40 0,22.064 -17.952,40 -40,40 z m 0,-64 c -13.232,0 -24,10.768 -24,24 0,13.232 10.768,24 24,24 13.232,0 24,-10.768 24,-24 0,-13.232 -10.768,-24 -24,-24 z"
       fill="#263238"
       id="path6"
       sodipodi:nodetypes="ssssssssss" />
    <path
       d="m 410.09764,63.596978 c -132.336,0 -240,107.663992 -240,239.999992 0,132.336 107.664,240 240,240 132.336,0 240,-107.664 240,-240 0,-132.336 -107.664,-239.999992 -240,-239.999992 z m 174.128,215.759992 h -116.192 l 82.032,-82.032 a 175.008,175.008 0 0 1 34.16,82.032 z m -150.128,-149.91999 a 174.912,174.912 0 0 1 82,33.99999 l -82,82 z m -48,115.98399 -82,-82 a 174.912,174.912 0 0 1 82,-33.99999 z m 0,232.336 a 174.976,174.976 0 0 1 -82.272,-34.192 l 82.272,-82.272 z m 48,-116.464 82.272,82.272 a 174.896,174.896 0 0 1 -82.272,34.192 z m -163.968,-163.968 82.032,82.032 h -116.192 a 174.688,174.688 0 0 1 34.16,-82.032 z m -34.24,130.032 h 116.272 l -82.224,82.224 a 174.608,174.608 0 0 1 -34.048,-82.224 z m 314.368,82.24 -82.224,-82.24 h 116.272 a 175.056,175.056 0 0 1 -34.048,82.24 z"
       fill="#ffffff"
       id="path7" />
    <path
       d="m 410.09764,551.59697 c -136.752,0 -248,-111.248 -248,-248 0,-136.752 111.248,-247.999992 248,-247.999992 136.752,0 248,111.247992 248,247.999992 0,136.752 -111.248,248 -248,248 z m 0,-479.999992 c -127.92,0 -232,104.079992 -232,231.999992 0,127.92 104.08,232 232,232 127.92,0 232,-104.08 232,-232 0,-127.92 -104.08,-231.999992 -232,-231.999992 z m 24,414.175992 a 8.016,8.016 0 0 1 -8,-8 v -116.464 a 8,8 0 0 1 13.664,-5.664 l 82.272,82.272 a 8,8 0 0 1 -0.8,12.016 183.52,183.52 0 0 1 -86.016,35.76 9.44,9.44 0 0 1 -1.12,0.08 z m 8,-105.168 v 87.712 a 167.936,167.936 0 0 0 61.952,-25.76 z m -56,105.168 a 8.496,8.496 0 0 1 -1.088,-0.08 183.68,183.68 0 0 1 -86.016,-35.76 7.936,7.936 0 0 1 -0.8,-12.016 l 82.272,-82.272 a 8,8 0 1 1 13.664,5.664 v 116.464 a 7.984,7.984 0 0 1 -8.032,8 z m -69.952,-43.2 a 167.664,167.664 0 0 0 61.952,25.76 v -87.712 z m -46.224,-24.976 -0.544,-0.016 a 8,8 0 0 1 -5.824,-3.152 183.744,183.744 0 0 1 -35.584,-85.984 7.968,7.968 0 0 1 7.92,-9.072 h 116.272 a 8,8 0 0 1 5.664,13.664 l -82.24,82.24 a 8.16,8.16 0 0 1 -5.664,2.32 z m -24.608,-82.24 c 4.272,22.096 12.992,43.2 25.632,61.904 l 61.904,-61.904 z m 304.944,82.24 a 8.112,8.112 0 0 1 -5.664,-2.336 l -82.224,-82.24 a 7.984,7.984 0 0 1 5.664,-13.664 h 116.272 a 7.984,7.984 0 0 1 7.92,9.072 183.6,183.6 0 0 1 -35.6,85.984 7.952,7.952 0 0 1 -5.824,3.152 c -0.176,0.032 -0.368,0.032 -0.544,0.032 z m -62.912,-82.24 61.904,61.904 a 167.68,167.68 0 0 0 25.632,-61.904 z m 96.88,-48 h -116.192 a 8,8 0 0 1 -5.664,-13.664 l 82.032,-82.032 a 8,8 0 0 1 12.016,0.8 183.472,183.472 0 0 1 35.712,85.776 7.936,7.936 0 0 1 -1.888,6.336 7.808,7.808 0 0 1 -6.016,2.784 z m -96.88,-16 h 87.44 a 168.048,168.048 0 0 0 -25.712,-61.712 z m -135.184,16 h -116.192 a 7.952,7.952 0 0 1 -7.92,-9.088 183.808,183.808 0 0 1 35.712,-85.776 7.936,7.936 0 0 1 12.016,-0.8 l 82.032,82.032 a 7.984,7.984 0 0 1 -5.648,13.632 z m -106.752,-16 h 87.44 l -61.712,-61.712 a 167.52,167.52 0 0 0 -25.728,61.712 z m 140.688,-17.936 a 8.064,8.064 0 0 1 -5.664,-2.336 l -82,-82 a 7.984,7.984 0 0 1 0.816,-12.032 183.584,183.584 0 0 1 85.744,-35.55199 7.952,7.952 0 0 1 9.088,7.92 v 115.99999 a 8,8 0 0 1 -7.984,8 z m -69.68,-88.976 61.664,61.664 v -87.24799 a 168.08,168.08 0 0 0 -61.664,25.58399 z m 117.68,88.976 a 8,8 0 0 1 -8,-8 V 129.42098 a 7.984,7.984 0 0 1 9.088,-7.92 183.472,183.472 0 0 1 85.728,35.55199 8,8 0 0 1 0.816,12.032 l -82,82 a 7.936,7.936 0 0 1 -5.632,2.336 z m 8,-114.55999 v 87.24799 l 61.664,-61.664 a 167.84,167.84 0 0 0 -61.664,-25.58399 z"
       fill="#263238"
       id="path8" />
    <path
       d="m 543.80964,279.35697 a 135.088,135.088 0 0 0 -22.24,-53.536 l -53.536,53.536 z"
       fill="#ffffff"
       id="path9" />
    <path
       d="m 543.80964,287.35697 h -75.776 a 8,8 0 0 1 -5.664,-13.664 l 53.536,-53.552 a 8.384,8.384 0 0 1 6.352,-2.32 8.032,8.032 0 0 1 5.856,3.392 142.448,142.448 0 0 1 23.552,56.704 8.048,8.048 0 0 1 -7.856,9.44 z m -56.464,-16 h 46.544 a 126.368,126.368 0 0 0 -13.664,-32.896 z"
       fill="#263238"
       id="path10" />
    <path
       d="m 352.16164,279.35697 -53.536,-53.536 a 135.04,135.04 0 0 0 -22.24,53.536 z"
       fill="#ffffff"
       id="path11" />
    <path
       d="m 352.16164,287.35697 h -75.792 a 7.952,7.952 0 0 1 -7.872,-9.424 142.448,142.448 0 0 1 23.568,-56.704 8.032,8.032 0 0 1 5.856,-3.392 8.32,8.32 0 0 1 6.352,2.32 l 53.536,53.552 a 7.984,7.984 0 0 1 -5.648,13.648 z m -65.872,-16 h 46.544 l -32.88,-32.896 a 127.152,127.152 0 0 0 -13.664,32.896 z"
       fill="#263238"
       id="path12" />
    <path
       d="m 468.03364,327.35697 53.744,53.744 a 134.864,134.864 0 0 0 22.112,-53.744 z"
       fill="#ffffff"
       id="path13" />
    <path
       d="m 521.76164,389.10097 a 8.112,8.112 0 0 1 -5.664,-2.336 l -53.728,-53.728 a 7.984,7.984 0 0 1 5.664,-13.664 h 75.856 a 7.952,7.952 0 0 1 7.872,9.392 142.176,142.176 0 0 1 -23.424,56.912 8,8 0 0 1 -5.856,3.408 z m -34.416,-53.744 33.056,33.056 a 126.24,126.24 0 0 0 13.6,-33.056 z"
       fill="#263238"
       id="path14" />
    <path
       d="m 487.60164,191.91697 a 135.216,135.216 0 0 0 -53.504,-22.08 v 75.584 z"
       fill="#ffffff"
       id="path15" />
    <path
       d="m 434.09764,253.42097 a 8,8 0 0 1 -8,-8 v -75.584 a 8.016,8.016 0 0 1 9.408,-7.872 142.24,142.24 0 0 1 56.672,23.392 7.952,7.952 0 0 1 1.072,12.208 l -53.504,53.504 a 7.952,7.952 0 0 1 -5.648,2.352 z m 8,-73.664 v 46.352 l 32.816,-32.832 a 126.432,126.432 0 0 0 -32.816,-13.52 z"
       fill="#263238"
       id="path16" />
    <path
       d="m 434.09764,361.29297 v 76.048 a 135.04,135.04 0 0 0 53.776,-22.288 z"
       fill="#ffffff"
       id="path17" />
    <path
       d="m 434.09764,445.34097 a 8.048,8.048 0 0 1 -8,-8 v -76.048 a 8,8 0 0 1 13.664,-5.664 l 53.776,53.76 a 8.016,8.016 0 0 1 -1.056,12.208 142.64,142.64 0 0 1 -56.96,23.6 7.408,7.408 0 0 1 -1.424,0.144 z m 8,-64.736 v 46.832 a 126.624,126.624 0 0 0 33.104,-13.712 z"
       fill="#263238"
       id="path18" />
    <path
       d="m 332.59364,191.91697 53.504,53.504 v -75.584 a 135.12,135.12 0 0 0 -53.504,22.08 z"
       fill="#ffffff"
       id="path19" />
    <path
       d="m 386.09764,253.42097 a 8.064,8.064 0 0 1 -5.664,-2.336 l -53.504,-53.504 a 8.016,8.016 0 0 1 1.072,-12.208 141.936,141.936 0 0 1 56.672,-23.392 8,8 0 0 1 9.408,7.872 v 75.584 a 8,8 0 0 1 -7.984,7.984 z m -40.832,-60.144 32.832,32.832 v -46.352 a 125.664,125.664 0 0 0 -32.832,13.52 z"
       fill="#263238"
       id="path20" />
    <path
       d="m 352.16164,327.35697 h -75.856 a 135.28,135.28 0 0 0 22.112,53.744 z"
       fill="#ffffff"
       id="path21" />
    <path
       d="m 298.41764,389.10097 a 7.968,7.968 0 0 1 -6.56,-3.44 142.32,142.32 0 0 1 -23.424,-56.912 7.968,7.968 0 0 1 7.872,-9.392 h 75.856 a 8,8 0 0 1 5.664,13.664 l -53.744,53.728 a 8.064,8.064 0 0 1 -5.664,2.352 z m -12.224,-53.744 c 2.96,11.664 7.504,22.736 13.584,33.04 l 33.056,-33.04 z"
       fill="#263238"
       id="path22" />
    <path
       d="m 332.32164,415.06897 a 135.28,135.28 0 0 0 53.776,22.288 v -76.048 z"
       fill="#ffffff"
       id="path23" />
    <path
       d="m 386.09764,445.34097 a 8.384,8.384 0 0 1 -1.408,-0.128 141.84,141.84 0 0 1 -56.96,-23.616 7.936,7.936 0 0 1 -1.056,-12.192 l 53.776,-53.76 a 8,8 0 1 1 13.664,5.664 v 76.048 a 8.016,8.016 0 0 1 -8.016,7.984 z m -41.12,-31.616 c 10.336,6.144 21.408,10.72 33.12,13.712 v -46.832 z m -154.368,57.872 H 36.369639 c -13.232,0 -24,-10.768 -24,-24 v -48 a 8,8 0 0 1 8,-8 h 48 v -48 h -48 a 8,8 0 0 1 -8,-8 v -64 a 8,8 0 0 1 8,-8 h 48 v -48 h -48 a 8,8 0 0 1 -8,-8 v -48 c 0,-13.232 10.768,-23.99999 24,-23.99999 H 191.55364 a 8,8 0 0 1 0,15.99999 H 36.369639 a 8,8 0 0 0 -8,8 v 40 h 48 a 8,8 0 0 1 8,8 v 64 a 8,8 0 0 1 -8,8 h -48 v 48 h 48 a 8,8 0 0 1 8,8 v 64 a 8,8 0 0 1 -8,8 h -48 v 40 a 8,8 0 0 0 8,8 H 190.60964 a 8,8 0 0 1 0,16 z"
       fill="#263238"
       id="path24" />
  </g>
</svg>
