<?xml version="1.0" encoding="UTF-8" standalone="no"?>
<svg
   class="svg-icon"
   style="overflow:hidden;fill:currentColor"
   viewBox="0 0 1300 1299.9999"
   version="1.1"
   id="svg1"
   sodipodi:docname="temperature.svg"
   inkscape:version="1.3.2 (091e20ef0f, 2023-11-25, custom)"
   width="1300"
   height="1300"
   xmlns:inkscape="http://www.inkscape.org/namespaces/inkscape"
   xmlns:sodipodi="http://sodipodi.sourceforge.net/DTD/sodipodi-0.dtd"
   xmlns="http://www.w3.org/2000/svg"
   xmlns:svg="http://www.w3.org/2000/svg">
  <defs
     id="defs1" />
  <sodipodi:namedview
     id="namedview1"
     pagecolor="#ffffff"
     bordercolor="#000000"
     borderopacity="0.25"
     inkscape:showpageshadow="2"
     inkscape:pageopacity="0.0"
     inkscape:pagecheckerboard="0"
     inkscape:deskcolor="#d1d1d1"
     inkscape:zoom="0.79148823"
     inkscape:cx="599.50354"
     inkscape:cy="594.44977"
     inkscape:window-width="2556"
     inkscape:window-height="1569"
     inkscape:window-x="0"
     inkscape:window-y="27"
     inkscape:window-maximized="1"
     inkscape:current-layer="svg1" />
  <path
     d="m 867.12025,384.27207 106.83725,-106.496 48.1281,48.128 -106.4961,106.496 z M 615.89892,171.96272 h 68.26667 v 136.53335 h -68.26667 z m 406.18668,801.79204 -48.1281,48.12804 -106.49595,-106.49607 48.12795,-48.128 z M 991.36552,615.69607 h 136.53338 v 68.26666 H 991.36552 Z M 177.96827,837.2214 a 237.22667,237.22667 0 0 1 96.59732,-144.384 V 308.49607 c 0,-75.43467 61.09867,-136.53335 136.53333,-136.53335 75.43467,0 136.53334,61.09868 136.53334,136.53335 V 692.8374 c 25.94133,18.09067 47.78666,40.61867 64.85333,67.584 34.47467,53.93067 45.73867,117.76 31.744,180.224 -13.99467,62.464 -50.85867,115.3706 -104.78933,149.8453 -38.912,24.9172 -82.944,37.5466 -128,37.5466 -17.408,0 -34.816,-2.048 -52.224,-5.8027 -62.464,-13.6532 -115.37067,-50.8586 -149.84534,-104.7892 C 175.2376,963.51473 163.9736,899.34407 177.96827,837.2214 Z m 89.42932,143.35996 a 167.76533,167.76533 0 0 0 107.17867,74.75204 c 44.37333,9.8986 90.112,1.7066 128.68266,-22.8694 a 169.02827,169.02827 0 0 0 74.752,-107.1786 c 9.89867,-44.37333 1.70667,-90.112 -22.86933,-128.68267 -14.67733,-23.21066 -34.47467,-41.984 -58.368,-55.97866 L 479.70692,730.7254 V 308.49607 c 0,-37.54667 -30.72,-68.26667 -68.26666,-68.26667 -37.54667,0 -68.26667,30.72 -68.26667,68.26667 v 422.912 l -23.552,13.312 c -38.57067,24.576 -64.85333,62.464 -74.752,107.17866 -10.24,44.37334 -2.048,90.112 22.528,128.68263 z m 109.568,-188.07463 v -313.344 h 68.26667 v 313.344 a 102.26347,102.26347 0 0 1 -34.13334,198.65603 c -56.66133,0 -102.4,-45.73869 -102.4,-102.40003 0,-44.37333 28.672,-81.92 68.26667,-96.256 z M 888.96555,649.8294 c 0,-131.75467 -107.17863,-238.93333 -238.93329,-238.93333 -11.60534,0 -22.86934,1.36533 -34.13334,2.73066 V 344.6774 c 11.264,-1.024 22.86934,-2.048 34.13334,-2.048 169.30133,0 307.19994,137.89867 307.19994,307.2 0,145.74933 -102.39994,267.94667 -238.93328,299.34933 v -70.656 c 98.64534,-29.35466 170.66663,-120.832 170.66663,-228.69333 z"
     id="path1"
     style="fill:#f2f2f2" />
</svg>
